<svg width="42" height="26" viewBox="0 0 42 26" fill="none" xmlns="http://www.w3.org/2000/svg">
<rect x="0.5" y="0.5" width="41" height="25" stroke="black"/>
<rect x="1" y="1" width="40" height="24" fill="#E81C23"/>
<path d="M8.20002 3.3999L9.27769 6.71662H12.7651L9.94373 8.76647L11.0214 12.0832L8.20002 10.0333L5.37866 12.0832L6.45632 8.76647L3.63495 6.71662H7.12236L8.20002 3.3999Z" fill="#FFFF00"/>
<path d="M15.8357 2.55986L15.6061 3.6398L16.5623 4.19183L15.4643 4.30723L15.2347 5.38717L14.7857 4.37856L13.6876 4.49397L14.5081 3.7552L14.0591 2.74659L15.0152 3.29862L15.8357 2.55986Z" fill="#FFFF00"/>
<path d="M18.6786 5.29285L18.1688 6.29339L18.9628 7.08742L17.8537 6.91176L17.3439 7.9123L17.1682 6.80319L16.0591 6.62753L17.0597 6.11772L16.884 5.00861L17.678 5.80265L18.6786 5.29285Z" fill="#FFFF00"/>
<path d="M17.7455 9L18.0925 10.068H19.2155L18.307 10.728L18.654 11.796L17.7455 11.1359L16.8371 11.796L17.1841 10.728L16.2756 10.068H17.3985L17.7455 9Z" fill="#FFFF00"/>
<path d="M15.293 11.7999L15.3517 12.9213L16.4364 13.212L15.3881 13.6144L15.4468 14.7358L14.7401 13.8631L13.6918 14.2655L14.3034 13.3237L13.5967 12.4511L14.6814 12.7417L15.293 11.7999Z" fill="#FFFF00"/>
</svg>
